<mxfile host="65bd71144e">
    <diagram id="zalHJotZlLk-_PNGRZr0" name="Page-1">
        <mxGraphModel dx="920" dy="994" grid="1" gridSize="10" guides="1" tooltips="1" connect="1" arrows="1" fold="1" page="1" pageScale="1" pageWidth="827" pageHeight="1169" math="0" shadow="0">
            <root>
                <mxCell id="0"/>
                <mxCell id="1" parent="0"/>
                <mxCell id="99" style="edgeStyle=none;html=1;exitX=0.5;exitY=1;exitDx=0;exitDy=0;entryX=0.5;entryY=0;entryDx=0;entryDy=0;fontColor=#F0F0F0;" edge="1" parent="1" source="64" target="98">
                    <mxGeometry relative="1" as="geometry"/>
                </mxCell>
                <mxCell id="64" value="start" style="ellipse;whiteSpace=wrap;html=1;shadow=0;sketch=1;curveFitting=1;jiggle=2;" parent="1" vertex="1">
                    <mxGeometry x="330" y="100" width="120" height="40" as="geometry"/>
                </mxCell>
                <mxCell id="69" value="" style="edgeStyle=none;html=1;entryX=0.5;entryY=0;entryDx=0;entryDy=0;shadow=0;sketch=1;curveFitting=1;jiggle=2;" parent="1" source="65" edge="1" target="70">
                    <mxGeometry relative="1" as="geometry">
                        <mxPoint x="390.0000000000001" y="610" as="targetPoint"/>
                    </mxGeometry>
                </mxCell>
                <mxCell id="65" value="init all()" style="rounded=0;whiteSpace=wrap;html=1;shadow=0;sketch=1;curveFitting=1;jiggle=2;" parent="1" vertex="1">
                    <mxGeometry x="330" y="520" width="120" height="60" as="geometry"/>
                </mxCell>
                <mxCell id="73" style="edgeStyle=none;html=1;exitX=0.5;exitY=1;exitDx=0;exitDy=0;entryX=0.5;entryY=0;entryDx=0;entryDy=0;shadow=0;sketch=1;curveFitting=1;jiggle=2;" parent="1" source="70" target="101" edge="1">
                    <mxGeometry relative="1" as="geometry">
                        <mxPoint x="390" y="700" as="targetPoint"/>
                    </mxGeometry>
                </mxCell>
                <mxCell id="70" value="local0 = 0&lt;br&gt;local2 = 0" style="rounded=0;whiteSpace=wrap;html=1;shadow=0;sketch=1;curveFitting=1;jiggle=2;" parent="1" vertex="1">
                    <mxGeometry x="330" y="620" width="120" height="60" as="geometry"/>
                </mxCell>
                <mxCell id="75" style="edgeStyle=none;html=1;entryX=0.5;entryY=0;entryDx=0;entryDy=0;shadow=0;sketch=1;curveFitting=1;jiggle=2;" parent="1" target="74" edge="1">
                    <mxGeometry relative="1" as="geometry">
                        <mxPoint x="1205" y="145" as="sourcePoint"/>
                    </mxGeometry>
                </mxCell>
                <mxCell id="79" style="edgeStyle=none;html=1;exitX=0.5;exitY=1;exitDx=0;exitDy=0;entryX=0.5;entryY=0;entryDx=0;entryDy=0;shadow=0;sketch=1;curveFitting=1;jiggle=2;" parent="1" source="74" target="76" edge="1">
                    <mxGeometry relative="1" as="geometry"/>
                </mxCell>
                <mxCell id="74" value="deref4 = sheduller_timer&lt;br&gt;deref5 = local0" style="rounded=0;whiteSpace=wrap;html=1;shadow=0;sketch=1;curveFitting=1;jiggle=2;" parent="1" vertex="1">
                    <mxGeometry x="1130" y="219.5" width="150" height="60" as="geometry"/>
                </mxCell>
                <mxCell id="78" style="edgeStyle=none;html=1;exitX=0.5;exitY=1;exitDx=0;exitDy=0;entryX=0.5;entryY=0;entryDx=0;entryDy=0;shadow=0;sketch=1;curveFitting=1;jiggle=2;" parent="1" source="76" target="77" edge="1">
                    <mxGeometry relative="1" as="geometry"/>
                </mxCell>
                <mxCell id="89" style="edgeStyle=none;html=1;entryX=0.5;entryY=0;entryDx=0;entryDy=0;exitX=1;exitY=0.5;exitDx=0;exitDy=0;shadow=0;sketch=1;curveFitting=1;jiggle=2;" parent="1" source="76" target="80" edge="1">
                    <mxGeometry relative="1" as="geometry">
                        <mxPoint x="1320" y="495" as="sourcePoint"/>
                        <Array as="points">
                            <mxPoint x="1320" y="355"/>
                            <mxPoint x="1320" y="505"/>
                            <mxPoint x="1205" y="505"/>
                        </Array>
                    </mxGeometry>
                </mxCell>
                <mxCell id="76" value="if(deref4 - deref5 &amp;gt;=1000)&amp;nbsp;" style="rhombus;whiteSpace=wrap;html=1;shadow=0;sketch=1;curveFitting=1;jiggle=2;" parent="1" vertex="1">
                    <mxGeometry x="1120" y="315" width="170" height="80" as="geometry"/>
                </mxCell>
                <mxCell id="84" style="edgeStyle=none;html=1;exitX=0.5;exitY=1;exitDx=0;exitDy=0;entryX=0.5;entryY=0;entryDx=0;entryDy=0;shadow=0;sketch=1;curveFitting=1;jiggle=2;" parent="1" source="77" target="80" edge="1">
                    <mxGeometry relative="1" as="geometry"/>
                </mxCell>
                <mxCell id="77" value="blink_1_step()&lt;br&gt;local0 = deref4" style="rounded=0;whiteSpace=wrap;html=1;shadow=0;sketch=1;curveFitting=1;jiggle=2;" parent="1" vertex="1">
                    <mxGeometry x="1145" y="425" width="120" height="60" as="geometry"/>
                </mxCell>
                <mxCell id="85" style="edgeStyle=none;html=1;exitX=0.5;exitY=1;exitDx=0;exitDy=0;entryX=0.5;entryY=0;entryDx=0;entryDy=0;shadow=0;sketch=1;curveFitting=1;jiggle=2;" parent="1" source="80" target="81" edge="1">
                    <mxGeometry relative="1" as="geometry"/>
                </mxCell>
                <mxCell id="80" value="deref6 = local2" style="rounded=0;whiteSpace=wrap;html=1;shadow=0;sketch=1;curveFitting=1;jiggle=2;" parent="1" vertex="1">
                    <mxGeometry x="1145" y="525" width="120" height="60" as="geometry"/>
                </mxCell>
                <mxCell id="86" style="edgeStyle=none;html=1;exitX=0.5;exitY=1;exitDx=0;exitDy=0;entryX=0.5;entryY=0;entryDx=0;entryDy=0;shadow=0;sketch=1;curveFitting=1;jiggle=2;" parent="1" source="81" target="82" edge="1">
                    <mxGeometry relative="1" as="geometry"/>
                </mxCell>
                <mxCell id="90" style="edgeStyle=none;html=1;exitX=1;exitY=0.5;exitDx=0;exitDy=0;entryX=0.5;entryY=0;entryDx=0;entryDy=0;shadow=0;sketch=1;curveFitting=1;jiggle=2;" parent="1" source="81" target="83" edge="1">
                    <mxGeometry relative="1" as="geometry">
                        <Array as="points">
                            <mxPoint x="1320" y="655"/>
                            <mxPoint x="1320" y="815"/>
                            <mxPoint x="1205" y="815"/>
                        </Array>
                    </mxGeometry>
                </mxCell>
                <mxCell id="81" value="if(deref4 - deref6 &amp;gt;=1)&amp;nbsp;" style="rhombus;whiteSpace=wrap;html=1;shadow=0;sketch=1;curveFitting=1;jiggle=2;" parent="1" vertex="1">
                    <mxGeometry x="1120" y="615" width="170" height="80" as="geometry"/>
                </mxCell>
                <mxCell id="87" style="edgeStyle=none;html=1;exitX=0.5;exitY=1;exitDx=0;exitDy=0;entryX=0.5;entryY=0;entryDx=0;entryDy=0;shadow=0;sketch=1;curveFitting=1;jiggle=2;" parent="1" source="82" target="83" edge="1">
                    <mxGeometry relative="1" as="geometry"/>
                </mxCell>
                <mxCell id="82" value="rbus_1_tx_step()&lt;br&gt;local2 = deref4" style="rounded=0;whiteSpace=wrap;html=1;shadow=0;sketch=1;curveFitting=1;jiggle=2;" parent="1" vertex="1">
                    <mxGeometry x="1145" y="725" width="120" height="60" as="geometry"/>
                </mxCell>
                <mxCell id="88" style="edgeStyle=none;html=1;exitX=0.5;exitY=1;exitDx=0;exitDy=0;shadow=0;sketch=1;curveFitting=1;jiggle=2;entryX=0.5;entryY=0;entryDx=0;entryDy=0;" parent="1" source="83" edge="1" target="74">
                    <mxGeometry relative="1" as="geometry">
                        <mxPoint x="1195" y="175" as="targetPoint"/>
                        <Array as="points">
                            <mxPoint x="1205" y="935"/>
                            <mxPoint x="1080" y="935"/>
                            <mxPoint x="1080" y="175"/>
                            <mxPoint x="1200" y="175"/>
                        </Array>
                    </mxGeometry>
                </mxCell>
                <mxCell id="83" value="rbus_1_rx_step()" style="rounded=0;whiteSpace=wrap;html=1;shadow=0;sketch=1;curveFitting=1;jiggle=2;" parent="1" vertex="1">
                    <mxGeometry x="1145" y="835" width="120" height="60" as="geometry"/>
                </mxCell>
                <mxCell id="92" value="true&lt;span style=&quot;color: rgba(0, 0, 0, 0); font-family: monospace; font-size: 0px; text-align: start;&quot;&gt;%3CmxGraphModel%3E%3Croot%3E%3CmxCell%20id%3D%220%22%2F%3E%3CmxCell%20id%3D%221%22%20parent%3D%220%22%2F%3E%3CmxCell%20id%3D%222%22%20value%3D%22deref6%20%3D%20local2%22%20style%3D%22rounded%3D0%3BwhiteSpace%3Dwrap%3Bhtml%3D1%3B%22%20vertex%3D%221%22%20parent%3D%221%22%3E%3CmxGeometry%20x%3D%22350%22%20y%3D%22860%22%20width%3D%22120%22%20height%3D%2260%22%20as%3D%22geometry%22%2F%3E%3C%2FmxCell%3E%3C%2Froot%3E%3C%2FmxGraphModel%3E&lt;/span&gt;" style="text;html=1;align=center;verticalAlign=middle;resizable=0;points=[];autosize=1;strokeColor=none;fillColor=none;" parent="1" vertex="1">
                    <mxGeometry x="1200" y="385" width="40" height="30" as="geometry"/>
                </mxCell>
                <mxCell id="93" value="true&lt;span style=&quot;color: rgba(0, 0, 0, 0); font-family: monospace; font-size: 0px; text-align: start;&quot;&gt;%3CmxGraphModel%3E%3Croot%3E%3CmxCell%20id%3D%220%22%2F%3E%3CmxCell%20id%3D%221%22%20parent%3D%220%22%2F%3E%3CmxCell%20id%3D%222%22%20value%3D%22deref6%20%3D%20local2%22%20style%3D%22rounded%3D0%3BwhiteSpace%3Dwrap%3Bhtml%3D1%3B%22%20vertex%3D%221%22%20parent%3D%221%22%3E%3CmxGeometry%20x%3D%22350%22%20y%3D%22860%22%20width%3D%22120%22%20height%3D%2260%22%20as%3D%22geometry%22%2F%3E%3C%2FmxCell%3E%3C%2Froot%3E%3C%2FmxGraphModel%3E&lt;/span&gt;" style="text;html=1;align=center;verticalAlign=middle;resizable=0;points=[];autosize=1;strokeColor=none;fillColor=none;" parent="1" vertex="1">
                    <mxGeometry x="1200" y="685" width="40" height="30" as="geometry"/>
                </mxCell>
                <mxCell id="94" value="false" style="text;html=1;align=center;verticalAlign=middle;resizable=0;points=[];autosize=1;strokeColor=none;fillColor=none;" parent="1" vertex="1">
                    <mxGeometry x="1280" y="325" width="50" height="30" as="geometry"/>
                </mxCell>
                <mxCell id="96" value="false" style="text;html=1;align=center;verticalAlign=middle;resizable=0;points=[];autosize=1;strokeColor=none;fillColor=none;" parent="1" vertex="1">
                    <mxGeometry x="1280" y="625" width="50" height="30" as="geometry"/>
                </mxCell>
                <mxCell id="100" style="edgeStyle=none;html=1;exitX=0.5;exitY=1;exitDx=0;exitDy=0;entryX=0.5;entryY=0;entryDx=0;entryDy=0;fontColor=#F0F0F0;" edge="1" parent="1" source="98" target="65">
                    <mxGeometry relative="1" as="geometry"/>
                </mxCell>
                <mxCell id="98" value="&lt;p style=&quot;margin: 0px; font-variant-numeric: normal; font-variant-east-asian: normal; font-stretch: normal; font-size: 13px; line-height: normal; font-family: &amp;quot;Helvetica Neue&amp;quot;; text-align: start;&quot; class=&quot;p1&quot;&gt;blink_1_state = false;&lt;/p&gt;&lt;p style=&quot;margin: 0px; font-variant-numeric: normal; font-variant-east-asian: normal; font-stretch: normal; font-size: 13px; line-height: normal; font-family: &amp;quot;Helvetica Neue&amp;quot;; text-align: start;&quot; class=&quot;p1&quot;&gt;rbus_1_rx_timestamp = 0;&lt;/p&gt;&lt;p style=&quot;margin: 0px; font-variant-numeric: normal; font-variant-east-asian: normal; font-stretch: normal; font-size: 13px; line-height: normal; font-family: &amp;quot;Helvetica Neue&amp;quot;; text-align: start;&quot; class=&quot;p1&quot;&gt;rbus_1_rx_buffer[64];&lt;/p&gt;&lt;p style=&quot;margin: 0px; font-variant-numeric: normal; font-variant-east-asian: normal; font-stretch: normal; font-size: 13px; line-height: normal; font-family: &amp;quot;Helvetica Neue&amp;quot;; text-align: start;&quot; class=&quot;p1&quot;&gt;rbus_1_rx_queue_producer_index = 0;&lt;/p&gt;&lt;p style=&quot;margin: 0px; font-variant-numeric: normal; font-variant-east-asian: normal; font-stretch: normal; font-size: 13px; line-height: normal; font-family: &amp;quot;Helvetica Neue&amp;quot;; text-align: start;&quot; class=&quot;p1&quot;&gt;rbus_1_rx_queue_consumer_index = 0;&lt;/p&gt;&lt;p style=&quot;margin: 0px; font-variant-numeric: normal; font-variant-east-asian: normal; font-stretch: normal; font-size: 13px; line-height: normal; font-family: &amp;quot;Helvetica Neue&amp;quot;; text-align: start;&quot; class=&quot;p1&quot;&gt;rbus_1_rx_queue_producer_semaphore = 64;&lt;/p&gt;&lt;p style=&quot;margin: 0px; font-variant-numeric: normal; font-variant-east-asian: normal; font-stretch: normal; font-size: 13px; line-height: normal; font-family: &amp;quot;Helvetica Neue&amp;quot;; text-align: start;&quot; class=&quot;p1&quot;&gt;rbus_1_rx_queue_consumer_semaphore = 0U;&lt;/p&gt;&lt;p style=&quot;margin: 0px; font-variant-numeric: normal; font-variant-east-asian: normal; font-stretch: normal; font-size: 13px; line-height: normal; font-family: &amp;quot;Helvetica Neue&amp;quot;; text-align: start;&quot; class=&quot;p1&quot;&gt;rbus_1_msg_size_buffer[32];&lt;/p&gt;&lt;p style=&quot;margin: 0px; font-variant-numeric: normal; font-variant-east-asian: normal; font-stretch: normal; font-size: 13px; line-height: normal; font-family: &amp;quot;Helvetica Neue&amp;quot;; text-align: start;&quot; class=&quot;p1&quot;&gt;rbus_1_msg_queue_producer_index = 0;&lt;/p&gt;&lt;p style=&quot;margin: 0px; font-variant-numeric: normal; font-variant-east-asian: normal; font-stretch: normal; font-size: 13px; line-height: normal; font-family: &amp;quot;Helvetica Neue&amp;quot;; text-align: start;&quot; class=&quot;p1&quot;&gt;rbus_1_msg_queue_consumer_index = 0;&lt;/p&gt;&lt;p style=&quot;margin: 0px; font-variant-numeric: normal; font-variant-east-asian: normal; font-stretch: normal; font-size: 13px; line-height: normal; font-family: &amp;quot;Helvetica Neue&amp;quot;; text-align: start;&quot; class=&quot;p1&quot;&gt;rbus_1_msg_queue_producer_semaphore = 32;&lt;/p&gt;&lt;p style=&quot;margin: 0px; font-variant-numeric: normal; font-variant-east-asian: normal; font-stretch: normal; font-size: 13px; line-height: normal; font-family: &amp;quot;Helvetica Neue&amp;quot;; text-align: start;&quot; class=&quot;p1&quot;&gt;rbus_1_msg_queue_consumer_semaphore = 0;&lt;/p&gt;&lt;p style=&quot;margin: 0px; font-variant-numeric: normal; font-variant-east-asian: normal; font-stretch: normal; font-size: 13px; line-height: normal; font-family: &amp;quot;Helvetica Neue&amp;quot;; text-align: start;&quot; class=&quot;p1&quot;&gt;rbus_1_msg_size = 0;&lt;/p&gt;&lt;p style=&quot;margin: 0px; font-variant-numeric: normal; font-variant-east-asian: normal; font-stretch: normal; font-size: 13px; line-height: normal; font-family: &amp;quot;Helvetica Neue&amp;quot;; text-align: start;&quot; class=&quot;p1&quot;&gt;rbus_1_msg_index_index =&lt;span class=&quot;Apple-converted-space&quot;&gt;&amp;nbsp; &lt;/span&gt;0;&lt;/p&gt;&lt;p style=&quot;margin: 0px; font-variant-numeric: normal; font-variant-east-asian: normal; font-stretch: normal; font-size: 13px; line-height: normal; font-family: &amp;quot;Helvetica Neue&amp;quot;; text-align: start;&quot; class=&quot;p1&quot;&gt;rbus_1_msg_buffer_buffer[512];&lt;/p&gt;&lt;p style=&quot;margin: 0px; font-variant-numeric: normal; font-variant-east-asian: normal; font-stretch: normal; font-size: 13px; line-height: normal; font-family: &amp;quot;Helvetica Neue&amp;quot;; text-align: start;&quot; class=&quot;p1&quot;&gt;rbus_1_tx_lock = false;&lt;/p&gt;&lt;p style=&quot;margin: 0px; font-variant-numeric: normal; font-variant-east-asian: normal; font-stretch: normal; font-size: 13px; line-height: normal; font-family: &amp;quot;Helvetica Neue&amp;quot;; text-align: start;&quot; class=&quot;p1&quot;&gt;rbus_1_tx_buffer[256];&lt;/p&gt;&lt;p style=&quot;margin: 0px; font-variant-numeric: normal; font-variant-east-asian: normal; font-stretch: normal; font-size: 13px; line-height: normal; font-family: &amp;quot;Helvetica Neue&amp;quot;; text-align: start;&quot; class=&quot;p1&quot;&gt;scheduler_timer = 0;&lt;/p&gt;" style="whiteSpace=wrap;html=1;shadow=0;" parent="1" vertex="1">
                    <mxGeometry x="230" y="180" width="320" height="300" as="geometry"/>
                </mxCell>
                <mxCell id="104" style="edgeStyle=none;html=1;exitX=0.5;exitY=1;exitDx=0;exitDy=0;fontColor=#F0F0F0;entryX=0.5;entryY=0;entryDx=0;entryDy=0;" edge="1" parent="1" source="101" target="70">
                    <mxGeometry relative="1" as="geometry">
                        <mxPoint x="290" y="580" as="targetPoint"/>
                        <Array as="points">
                            <mxPoint x="390" y="790"/>
                            <mxPoint x="300" y="790"/>
                            <mxPoint x="300" y="600"/>
                            <mxPoint x="390" y="600"/>
                        </Array>
                    </mxGeometry>
                </mxCell>
                <mxCell id="101" value="loop()" style="whiteSpace=wrap;html=1;fontColor=#F0F0F0;" vertex="1" parent="1">
                    <mxGeometry x="330" y="710" width="120" height="60" as="geometry"/>
                </mxCell>
                <mxCell id="105" value="loop()" style="text;html=1;align=center;verticalAlign=middle;resizable=0;points=[];autosize=1;strokeColor=none;fillColor=none;fontColor=#F0F0F0;" vertex="1" parent="1">
                    <mxGeometry x="1175" y="60" width="50" height="30" as="geometry"/>
                </mxCell>
                <mxCell id="112" style="edgeStyle=none;html=1;exitX=0.5;exitY=1;exitDx=0;exitDy=0;entryX=0.5;entryY=0;entryDx=0;entryDy=0;fontColor=#F0F0F0;" edge="1" parent="1" source="106" target="111">
                    <mxGeometry relative="1" as="geometry"/>
                </mxCell>
                <mxCell id="106" value="n_deref0 = blink_1_state&lt;br&gt;blink_1_state = !n_deref0" style="whiteSpace=wrap;html=1;fontColor=#F0F0F0;" vertex="1" parent="1">
                    <mxGeometry x="1989" y="370" width="170" height="60" as="geometry"/>
                </mxCell>
                <mxCell id="108" value="blink_1_step" style="text;html=1;align=center;verticalAlign=middle;resizable=0;points=[];autosize=1;strokeColor=none;fillColor=none;fontColor=#F0F0F0;" vertex="1" parent="1">
                    <mxGeometry x="2104" y="275" width="90" height="30" as="geometry"/>
                </mxCell>
                <mxCell id="110" value="" style="edgeStyle=none;orthogonalLoop=1;jettySize=auto;html=1;fontColor=#F0F0F0;entryX=0.5;entryY=0;entryDx=0;entryDy=0;" edge="1" parent="1" target="106">
                    <mxGeometry width="100" relative="1" as="geometry">
                        <mxPoint x="2074" y="300" as="sourcePoint"/>
                        <mxPoint x="2109" y="340" as="targetPoint"/>
                        <Array as="points"/>
                    </mxGeometry>
                </mxCell>
                <mxCell id="117" style="edgeStyle=none;html=1;exitX=0;exitY=0.5;exitDx=0;exitDy=0;entryX=0.5;entryY=0;entryDx=0;entryDy=0;fontColor=#F0F0F0;" edge="1" parent="1" source="111" target="114">
                    <mxGeometry relative="1" as="geometry">
                        <Array as="points">
                            <mxPoint x="1949" y="515"/>
                        </Array>
                    </mxGeometry>
                </mxCell>
                <mxCell id="118" style="edgeStyle=none;html=1;exitX=1;exitY=0.5;exitDx=0;exitDy=0;entryX=0.5;entryY=0;entryDx=0;entryDy=0;fontColor=#F0F0F0;" edge="1" parent="1" source="111" target="116">
                    <mxGeometry relative="1" as="geometry">
                        <Array as="points">
                            <mxPoint x="2189" y="515"/>
                        </Array>
                    </mxGeometry>
                </mxCell>
                <mxCell id="111" value="if(n_deref)" style="rhombus;whiteSpace=wrap;html=1;fontColor=#F0F0F0;" vertex="1" parent="1">
                    <mxGeometry x="1994" y="475" width="160" height="80" as="geometry"/>
                </mxCell>
                <mxCell id="121" style="edgeStyle=none;html=1;exitX=0.5;exitY=1;exitDx=0;exitDy=0;fontColor=#F0F0F0;" edge="1" parent="1" source="114">
                    <mxGeometry relative="1" as="geometry">
                        <mxPoint x="2079" y="710" as="targetPoint"/>
                        <Array as="points">
                            <mxPoint x="1949" y="670"/>
                            <mxPoint x="2079" y="670"/>
                        </Array>
                    </mxGeometry>
                </mxCell>
                <mxCell id="114" value="gpio_bit_set()" style="whiteSpace=wrap;html=1;fontColor=#F0F0F0;" vertex="1" parent="1">
                    <mxGeometry x="1889" y="570" width="120" height="60" as="geometry"/>
                </mxCell>
                <mxCell id="122" style="edgeStyle=none;html=1;exitX=0.5;exitY=1;exitDx=0;exitDy=0;fontColor=#F0F0F0;" edge="1" parent="1" source="116">
                    <mxGeometry relative="1" as="geometry">
                        <mxPoint x="2079" y="710" as="targetPoint"/>
                        <Array as="points">
                            <mxPoint x="2187" y="670"/>
                            <mxPoint x="2079" y="670"/>
                        </Array>
                    </mxGeometry>
                </mxCell>
                <mxCell id="116" value="gpio_bit_reset()" style="whiteSpace=wrap;html=1;fontColor=#F0F0F0;" vertex="1" parent="1">
                    <mxGeometry x="2127" y="570" width="120" height="60" as="geometry"/>
                </mxCell>
                <mxCell id="119" value="true" style="text;html=1;align=center;verticalAlign=middle;resizable=0;points=[];autosize=1;strokeColor=none;fillColor=none;fontColor=#F0F0F0;" vertex="1" parent="1">
                    <mxGeometry x="1954" y="490" width="40" height="30" as="geometry"/>
                </mxCell>
                <mxCell id="120" value="false" style="text;html=1;align=center;verticalAlign=middle;resizable=0;points=[];autosize=1;strokeColor=none;fillColor=none;fontColor=#F0F0F0;" vertex="1" parent="1">
                    <mxGeometry x="2144" y="490" width="50" height="30" as="geometry"/>
                </mxCell>
                <mxCell id="134" style="edgeStyle=none;html=1;exitX=0.5;exitY=1;exitDx=0;exitDy=0;entryX=0.5;entryY=0;entryDx=0;entryDy=0;fontColor=#FFFFFF;" edge="1" parent="1" source="124" target="128">
                    <mxGeometry relative="1" as="geometry"/>
                </mxCell>
                <mxCell id="124" value="&lt;div style=&quot;color: rgb(212, 212, 212); background-color: rgb(30, 30, 30); font-family: &amp;quot;Fira Code&amp;quot;, Menlo, Monaco, &amp;quot;Courier New&amp;quot;, monospace; line-height: 18px;&quot;&gt;&lt;span style=&quot;color: #9cdcfe;&quot;&gt;n_deref0&lt;/span&gt; = &lt;span style=&quot;color: #9cdcfe;&quot;&gt;rbus_1_tx_loc&lt;/span&gt;&lt;/div&gt;" style="whiteSpace=wrap;html=1;fontColor=#F0F0F0;" vertex="1" parent="1">
                    <mxGeometry x="2780" y="80" width="220" height="60" as="geometry"/>
                </mxCell>
                <mxCell id="125" value="" style="edgeStyle=none;orthogonalLoop=1;jettySize=auto;html=1;fontColor=#F0F0F0;entryX=0.5;entryY=0;entryDx=0;entryDy=0;" edge="1" parent="1" target="124">
                    <mxGeometry width="100" relative="1" as="geometry">
                        <mxPoint x="2890" y="40" as="sourcePoint"/>
                        <mxPoint x="2920" y="20" as="targetPoint"/>
                        <Array as="points"/>
                    </mxGeometry>
                </mxCell>
                <mxCell id="127" value="rbus_1_tx_step" style="text;html=1;align=center;verticalAlign=middle;resizable=0;points=[];autosize=1;strokeColor=none;fillColor=none;fontColor=#FFFFFF;" vertex="1" parent="1">
                    <mxGeometry x="2970" y="20" width="110" height="30" as="geometry"/>
                </mxCell>
                <mxCell id="133" style="edgeStyle=none;html=1;exitX=0.5;exitY=1;exitDx=0;exitDy=0;fontColor=#FFFFFF;" edge="1" parent="1" source="128" target="129">
                    <mxGeometry relative="1" as="geometry"/>
                </mxCell>
                <mxCell id="149" style="edgeStyle=none;html=1;exitX=1;exitY=0.5;exitDx=0;exitDy=0;fontColor=#FFFFFF;" edge="1" parent="1" source="128">
                    <mxGeometry relative="1" as="geometry">
                        <mxPoint x="2890" y="1110" as="targetPoint"/>
                        <Array as="points">
                            <mxPoint x="3210" y="210"/>
                            <mxPoint x="3210" y="1090"/>
                            <mxPoint x="2890" y="1090"/>
                        </Array>
                    </mxGeometry>
                </mxCell>
                <mxCell id="128" value="&lt;div style=&quot;color: rgb(212, 212, 212); background-color: rgb(30, 30, 30); font-family: &amp;quot;Fira Code&amp;quot;, Menlo, Monaco, &amp;quot;Courier New&amp;quot;, monospace; line-height: 18px;&quot;&gt;&lt;span style=&quot;color: #c586c0;&quot;&gt;if(!n_deref0)&lt;/span&gt;&lt;/div&gt;" style="rhombus;whiteSpace=wrap;html=1;fontColor=#FFFFFF;" vertex="1" parent="1">
                    <mxGeometry x="2805" y="169.5" width="170" height="80" as="geometry"/>
                </mxCell>
                <mxCell id="131" style="edgeStyle=none;html=1;fontColor=#FFFFFF;entryX=0.5;entryY=0;entryDx=0;entryDy=0;" edge="1" parent="1" source="129" target="132">
                    <mxGeometry relative="1" as="geometry">
                        <mxPoint x="2890" y="380" as="targetPoint"/>
                    </mxGeometry>
                </mxCell>
                <mxCell id="129" value="&lt;div style=&quot;color: rgb(212, 212, 212); background-color: rgb(30, 30, 30); font-family: &amp;quot;Fira Code&amp;quot;, Menlo, Monaco, &amp;quot;Courier New&amp;quot;, monospace; line-height: 18px;&quot;&gt;&lt;span style=&quot;color: #9cdcfe;&quot;&gt;n_deref1&lt;/span&gt; = &lt;span style=&quot;color: #9cdcfe;&quot;&gt;rbus_1_msg_queue_consumer_semaphore&lt;/span&gt;&lt;/div&gt;" style="whiteSpace=wrap;html=1;fontColor=#FFFFFF;" vertex="1" parent="1">
                    <mxGeometry x="2685" y="285" width="410" height="60" as="geometry"/>
                </mxCell>
                <mxCell id="136" style="edgeStyle=none;html=1;exitX=0.5;exitY=1;exitDx=0;exitDy=0;entryX=0.5;entryY=0;entryDx=0;entryDy=0;fontColor=#FFFFFF;" edge="1" parent="1" source="132" target="137">
                    <mxGeometry relative="1" as="geometry">
                        <mxPoint x="2890" y="490" as="targetPoint"/>
                    </mxGeometry>
                </mxCell>
                <mxCell id="150" style="edgeStyle=none;html=1;exitX=1;exitY=0.5;exitDx=0;exitDy=0;fontColor=#FFFFFF;" edge="1" parent="1" source="132">
                    <mxGeometry relative="1" as="geometry">
                        <mxPoint x="2890" y="1113.70361328125" as="targetPoint"/>
                        <Array as="points">
                            <mxPoint x="3170" y="425"/>
                            <mxPoint x="3170" y="1070"/>
                            <mxPoint x="2890" y="1070"/>
                        </Array>
                    </mxGeometry>
                </mxCell>
                <mxCell id="132" value="&lt;div style=&quot;color: rgb(212, 212, 212); background-color: rgb(30, 30, 30); font-family: &amp;quot;Fira Code&amp;quot;, Menlo, Monaco, &amp;quot;Courier New&amp;quot;, monospace; line-height: 18px;&quot;&gt;&lt;span style=&quot;color: #c586c0;&quot;&gt;if(n_deref1&amp;gt;0)&lt;/span&gt;&lt;/div&gt;" style="rhombus;whiteSpace=wrap;html=1;fontColor=#FFFFFF;" vertex="1" parent="1">
                    <mxGeometry x="2805" y="385" width="170" height="80" as="geometry"/>
                </mxCell>
                <mxCell id="140" style="edgeStyle=none;html=1;exitX=0.5;exitY=1;exitDx=0;exitDy=0;entryX=0.5;entryY=0;entryDx=0;entryDy=0;fontColor=#FFFFFF;" edge="1" parent="1" source="137" target="139">
                    <mxGeometry relative="1" as="geometry"/>
                </mxCell>
                <mxCell id="137" value="&lt;div style=&quot;color: rgb(212, 212, 212); background-color: rgb(30, 30, 30); font-family: &amp;quot;Fira Code&amp;quot;, Menlo, Monaco, &amp;quot;Courier New&amp;quot;, monospace; font-weight: normal; font-size: 12px; line-height: 18px;&quot;&gt;&lt;div&gt;&lt;span style=&quot;color: rgb(156, 220, 254);&quot;&gt;rbus_1_msg_queue_consumer_semaphore&lt;/span&gt;&amp;nbsp;=&amp;nbsp;&lt;span style=&quot;color: rgb(156, 220, 254);&quot;&gt;n_deref1&lt;/span&gt;&amp;nbsp;-&amp;nbsp;&lt;span style=&quot;color: rgb(181, 206, 168);&quot;&gt;1&lt;/span&gt;;&lt;span style=&quot;color: #9cdcfe;&quot;&gt;&lt;br&gt;&lt;/span&gt;&lt;/div&gt;&lt;div&gt;&lt;span style=&quot;color: #9cdcfe;&quot;&gt;n_deref2&lt;/span&gt;&lt;span style=&quot;color: #d4d4d4;&quot;&gt; = &lt;/span&gt;&lt;span style=&quot;color: #9cdcfe;&quot;&gt;rbus_1_msg_queue_consumer_index&lt;/span&gt;&lt;span style=&quot;color: #d4d4d4;&quot;&gt;;&lt;/span&gt;&lt;/div&gt;&lt;div&gt;&lt;span style=&quot;color: #9cdcfe;&quot;&gt;n_deref3&lt;/span&gt;&lt;span style=&quot;color: #d4d4d4;&quot;&gt; = &lt;/span&gt;&lt;span style=&quot;color: #9cdcfe;&quot;&gt;rbus_1_msg_size_buffer&lt;/span&gt;&lt;span style=&quot;color: #d4d4d4;&quot;&gt;[&lt;/span&gt;&lt;span style=&quot;color: #9cdcfe;&quot;&gt;n_deref2&lt;/span&gt;&lt;span style=&quot;color: #d4d4d4;&quot;&gt; % &lt;/span&gt;&lt;span style=&quot;color: #b5cea8;&quot;&gt;32&lt;/span&gt;&lt;span style=&quot;color: #d4d4d4;&quot;&gt;];&lt;/span&gt;&lt;/div&gt;&lt;div&gt;&lt;span style=&quot;color: #9cdcfe;&quot;&gt;n_cse10&lt;/span&gt;&lt;span style=&quot;color: #d4d4d4;&quot;&gt; = &lt;/span&gt;&lt;span style=&quot;color: #9cdcfe;&quot;&gt;n_deref3&lt;/span&gt;&lt;span style=&quot;color: #d4d4d4;&quot;&gt; % &lt;/span&gt;&lt;span style=&quot;color: #b5cea8;&quot;&gt;256&lt;/span&gt;&lt;span style=&quot;color: #d4d4d4;&quot;&gt; - &lt;/span&gt;&lt;span style=&quot;color: #b5cea8;&quot;&gt;1&lt;/span&gt;&lt;span style=&quot;color: #d4d4d4;&quot;&gt;;&lt;/span&gt;&lt;/div&gt;&lt;/div&gt;" style="whiteSpace=wrap;html=1;fontColor=#FFFFFF;" vertex="1" parent="1">
                    <mxGeometry x="2695" y="495" width="390" height="85" as="geometry"/>
                </mxCell>
                <mxCell id="142" style="edgeStyle=none;html=1;exitX=0.5;exitY=1;exitDx=0;exitDy=0;fontColor=#FFFFFF;" edge="1" parent="1" source="139">
                    <mxGeometry relative="1" as="geometry">
                        <mxPoint x="2890" y="750" as="targetPoint"/>
                    </mxGeometry>
                </mxCell>
                <mxCell id="146" style="edgeStyle=none;html=1;exitX=1;exitY=0.5;exitDx=0;exitDy=0;fontColor=#FFFFFF;entryX=0.5;entryY=0;entryDx=0;entryDy=0;" edge="1" parent="1" source="139" target="147">
                    <mxGeometry relative="1" as="geometry">
                        <mxPoint x="2910" y="880" as="targetPoint"/>
                        <Array as="points">
                            <mxPoint x="3130" y="670"/>
                            <mxPoint x="3130" y="890"/>
                            <mxPoint x="2890" y="890"/>
                        </Array>
                    </mxGeometry>
                </mxCell>
                <mxCell id="139" value="for (x=0; x &amp;lt;= n_cse0; x++)" style="rhombus;whiteSpace=wrap;html=1;fontColor=#FFFFFF;" vertex="1" parent="1">
                    <mxGeometry x="2765" y="630" width="250" height="80" as="geometry"/>
                </mxCell>
                <mxCell id="145" style="edgeStyle=none;html=1;exitX=0.5;exitY=1;exitDx=0;exitDy=0;entryX=0;entryY=0.5;entryDx=0;entryDy=0;fontColor=#FFFFFF;" edge="1" parent="1" source="141" target="139">
                    <mxGeometry relative="1" as="geometry">
                        <Array as="points">
                            <mxPoint x="2890" y="870"/>
                            <mxPoint x="2660" y="870"/>
                            <mxPoint x="2660" y="670"/>
                        </Array>
                    </mxGeometry>
                </mxCell>
                <mxCell id="141" value="&lt;div style=&quot;color: rgb(212, 212, 212); background-color: rgb(30, 30, 30); font-family: &amp;quot;Fira Code&amp;quot;, Menlo, Monaco, &amp;quot;Courier New&amp;quot;, monospace; font-weight: normal; font-size: 12px; line-height: 18px;&quot;&gt;&lt;div&gt;&lt;span style=&quot;color: #9cdcfe;&quot;&gt;n_deref5&lt;/span&gt;&lt;span style=&quot;color: #d4d4d4;&quot;&gt; = &lt;/span&gt;&lt;span style=&quot;color: #9cdcfe;&quot;&gt;rbus_1_msg_index_index&lt;/span&gt;&lt;span style=&quot;color: #d4d4d4;&quot;&gt;;&lt;/span&gt;&lt;/div&gt;&lt;div&gt;&lt;span style=&quot;color: #9cdcfe;&quot;&gt;n_deref6&lt;/span&gt;&lt;span style=&quot;color: #d4d4d4;&quot;&gt; = &lt;/span&gt;&lt;span style=&quot;color: #9cdcfe;&quot;&gt;rbus_1_msg_buffer_buffer&lt;/span&gt;&lt;span style=&quot;color: #d4d4d4;&quot;&gt;[&lt;/span&gt;&lt;span style=&quot;color: #9cdcfe;&quot;&gt;n_deref5&lt;/span&gt;&lt;span style=&quot;color: #d4d4d4;&quot;&gt;];&lt;/span&gt;&lt;/div&gt;&lt;div&gt;&lt;span style=&quot;color: #d4d4d4;&quot;&gt;                &lt;/span&gt;&lt;/div&gt;&lt;div&gt;&lt;span style=&quot;color: #d4d4d4;&quot;&gt;                &lt;/span&gt;&lt;span style=&quot;color: #9cdcfe;&quot;&gt;rbus_1_tx_buffer&lt;/span&gt;&lt;span style=&quot;color: #d4d4d4;&quot;&gt;[&lt;/span&gt;&lt;span style=&quot;color: #9cdcfe;&quot;&gt;n_ix4&lt;/span&gt;&lt;span style=&quot;color: #d4d4d4;&quot;&gt;] = &lt;/span&gt;&lt;span style=&quot;color: #9cdcfe;&quot;&gt;n_deref6&lt;/span&gt;&lt;span style=&quot;color: #d4d4d4;&quot;&gt;;&lt;/span&gt;&lt;/div&gt;&lt;div&gt;&lt;span style=&quot;color: #d4d4d4;&quot;&gt;                &lt;/span&gt;&lt;span style=&quot;color: #9cdcfe;&quot;&gt;rbus_1_msg_index_index&lt;/span&gt;&lt;span style=&quot;color: #d4d4d4;&quot;&gt; = (&lt;/span&gt;&lt;span style=&quot;color: #b5cea8;&quot;&gt;1&lt;/span&gt;&lt;span style=&quot;color: #d4d4d4;&quot;&gt; + &lt;/span&gt;&lt;span style=&quot;color: #9cdcfe;&quot;&gt;n_deref5&lt;/span&gt;&lt;span style=&quot;color: #d4d4d4;&quot;&gt;) % &lt;/span&gt;&lt;span style=&quot;color: #b5cea8;&quot;&gt;512&lt;/span&gt;&lt;span style=&quot;color: #d4d4d4;&quot;&gt;;&lt;/span&gt;&lt;/div&gt;&lt;/div&gt;" style="whiteSpace=wrap;html=1;fontColor=#FFFFFF;" vertex="1" parent="1">
                    <mxGeometry x="2695" y="750" width="390" height="80" as="geometry"/>
                </mxCell>
                <mxCell id="148" style="edgeStyle=none;html=1;exitX=0.5;exitY=1;exitDx=0;exitDy=0;fontColor=#FFFFFF;" edge="1" parent="1" source="147">
                    <mxGeometry relative="1" as="geometry">
                        <mxPoint x="2890.3333333333335" y="1110" as="targetPoint"/>
                    </mxGeometry>
                </mxCell>
                <mxCell id="147" value="&lt;div style=&quot;color: rgb(212, 212, 212); background-color: rgb(30, 30, 30); font-family: &amp;quot;Fira Code&amp;quot;, Menlo, Monaco, &amp;quot;Courier New&amp;quot;, monospace; line-height: 18px;&quot;&gt;&lt;span style=&quot;color: #dcdcaa;&quot;&gt;gpio_bit_set(REDE);&lt;/span&gt;&lt;/div&gt;&lt;div style=&quot;color: rgb(212, 212, 212); background-color: rgb(30, 30, 30); font-family: &amp;quot;Fira Code&amp;quot;, Menlo, Monaco, &amp;quot;Courier New&amp;quot;, monospace; line-height: 18px;&quot;&gt;&lt;span style=&quot;color: #dcdcaa;&quot;&gt;SEND_WITH_DMA();&lt;/span&gt;&lt;/div&gt;&lt;div style=&quot;color: rgb(212, 212, 212); background-color: rgb(30, 30, 30); font-family: &amp;quot;Fira Code&amp;quot;, Menlo, Monaco, &amp;quot;Courier New&amp;quot;, monospace; line-height: 18px;&quot;&gt;&lt;div style=&quot;line-height: 18px;&quot;&gt;&lt;div&gt;&lt;span style=&quot;color: #9cdcfe;&quot;&gt;rbus_1_tx_lock&lt;/span&gt; = &lt;span style=&quot;color: #569cd6;&quot;&gt;true&lt;/span&gt;;&lt;/div&gt;&lt;div&gt;            &lt;span style=&quot;color: #9cdcfe;&quot;&gt;rbus_1_msg_queue_consumer_index&lt;/span&gt; =&amp;nbsp;&lt;span style=&quot;color: #b5cea8;&quot;&gt;1&lt;/span&gt;&amp;nbsp;+ &lt;span style=&quot;color: #9cdcfe;&quot;&gt;n_deref2;&lt;/span&gt;&lt;/div&gt;&lt;div&gt;            &lt;/div&gt;&lt;div&gt;&lt;span style=&quot;color: #9cdcfe;&quot;&gt;n_deref11&lt;/span&gt; = &lt;span style=&quot;color: #9cdcfe;&quot;&gt;rbus_1_msg_queue_producer_semaphore;&lt;/span&gt;&lt;/div&gt;&lt;div&gt;            &lt;/div&gt;&lt;div&gt;            &lt;span style=&quot;color: #9cdcfe;&quot;&gt;rbus_1_msg_queue_producer_semaphore&lt;/span&gt; =&amp;nbsp;&lt;span style=&quot;color: #b5cea8;&quot;&gt;1&lt;/span&gt;&amp;nbsp;+ &lt;span style=&quot;color: #9cdcfe;&quot;&gt;n_deref11;&lt;/span&gt;&lt;/div&gt;&lt;/div&gt;&lt;/div&gt;" style="whiteSpace=wrap;html=1;fontColor=#FFFFFF;" vertex="1" parent="1">
                    <mxGeometry x="2680" y="920" width="420" height="120" as="geometry"/>
                </mxCell>
                <mxCell id="170" style="edgeStyle=none;html=1;exitX=0.5;exitY=1;exitDx=0;exitDy=0;entryX=0.5;entryY=0;entryDx=0;entryDy=0;fontColor=#FFFFFF;" edge="1" parent="1" source="151" target="169">
                    <mxGeometry relative="1" as="geometry"/>
                </mxCell>
                <mxCell id="151" value="&lt;div style=&quot;color: rgb(212, 212, 212); background-color: rgb(30, 30, 30); font-family: &amp;quot;Fira Code&amp;quot;, Menlo, Monaco, &amp;quot;Courier New&amp;quot;, monospace; line-height: 18px;&quot;&gt;&lt;span style=&quot;color: #9cdcfe;&quot;&gt;n_deref8&lt;/span&gt; = &lt;span style=&quot;color: #9cdcfe;&quot;&gt;rbus_1_msg_queue_producer_semaphore&lt;/span&gt;&lt;/div&gt;" style="whiteSpace=wrap;html=1;fontColor=#FFFFFF;" vertex="1" parent="1">
                    <mxGeometry x="3550" y="725" width="380" height="40" as="geometry"/>
                </mxCell>
                <mxCell id="158" style="edgeStyle=none;html=1;exitX=0.5;exitY=1;exitDx=0;exitDy=0;entryX=0.5;entryY=0;entryDx=0;entryDy=0;fontColor=#FFFFFF;" edge="1" parent="1" source="152" target="156">
                    <mxGeometry relative="1" as="geometry"/>
                </mxCell>
                <mxCell id="152" value="&lt;div style=&quot;color: rgb(212, 212, 212); background-color: rgb(30, 30, 30); font-family: &amp;quot;Fira Code&amp;quot;, Menlo, Monaco, &amp;quot;Courier New&amp;quot;, monospace; line-height: 18px;&quot;&gt; &lt;span style=&quot;color: #9cdcfe;&quot;&gt;n_deref0&lt;/span&gt; = &lt;span style=&quot;color: #9cdcfe;&quot;&gt;rbus_1_rx_queue_consumer_semaphore&lt;/span&gt;;&lt;/div&gt;" style="whiteSpace=wrap;html=1;fontColor=#FFFFFF;" vertex="1" parent="1">
                    <mxGeometry x="3550" y="90" width="380" height="30" as="geometry"/>
                </mxCell>
                <mxCell id="154" value="rbus_1_rx_step" style="text;html=1;align=center;verticalAlign=middle;resizable=0;points=[];autosize=1;strokeColor=none;fillColor=none;fontColor=#FFFFFF;" vertex="1" parent="1">
                    <mxGeometry x="3950" y="50" width="110" height="30" as="geometry"/>
                </mxCell>
                <mxCell id="155" value="" style="edgeStyle=none;orthogonalLoop=1;jettySize=auto;html=1;fontColor=#FFFFFF;entryX=0.5;entryY=0;entryDx=0;entryDy=0;" edge="1" parent="1" target="152">
                    <mxGeometry width="100" relative="1" as="geometry">
                        <mxPoint x="3740" y="20" as="sourcePoint"/>
                        <mxPoint x="3730" y="30" as="targetPoint"/>
                        <Array as="points"/>
                    </mxGeometry>
                </mxCell>
                <mxCell id="160" style="edgeStyle=none;html=1;exitX=0.5;exitY=1;exitDx=0;exitDy=0;entryX=0.5;entryY=0;entryDx=0;entryDy=0;fontColor=#FFFFFF;" edge="1" parent="1" source="156" target="159">
                    <mxGeometry relative="1" as="geometry"/>
                </mxCell>
                <mxCell id="164" style="edgeStyle=none;html=1;exitX=1;exitY=0.5;exitDx=0;exitDy=0;entryX=0.5;entryY=0;entryDx=0;entryDy=0;fontColor=#FFFFFF;" edge="1" parent="1" source="156" target="161">
                    <mxGeometry relative="1" as="geometry">
                        <Array as="points">
                            <mxPoint x="3960" y="200"/>
                            <mxPoint x="3960" y="500"/>
                            <mxPoint x="3740" y="500"/>
                        </Array>
                    </mxGeometry>
                </mxCell>
                <mxCell id="156" value="if( n_deref0 &amp;gt; 0)" style="rhombus;whiteSpace=wrap;html=1;fontColor=#FFFFFF;" vertex="1" parent="1">
                    <mxGeometry x="3645" y="160" width="190" height="80" as="geometry"/>
                </mxCell>
                <mxCell id="163" style="edgeStyle=none;html=1;exitX=0.5;exitY=1;exitDx=0;exitDy=0;entryX=0.5;entryY=0;entryDx=0;entryDy=0;fontColor=#FFFFFF;" edge="1" parent="1" source="159" target="161">
                    <mxGeometry relative="1" as="geometry"/>
                </mxCell>
                <mxCell id="159" value="&lt;div style=&quot;color: rgb(212, 212, 212); background-color: rgb(30, 30, 30); font-family: &amp;quot;Fira Code&amp;quot;, Menlo, Monaco, &amp;quot;Courier New&amp;quot;, monospace; line-height: 18px;&quot;&gt;&lt;div&gt; &lt;span style=&quot;color: #9cdcfe;&quot;&gt;rbus_1_rx_queue_consumer_semaphore&lt;/span&gt; = &lt;span style=&quot;color: #9cdcfe;&quot;&gt;n_deref0&lt;/span&gt; -&amp;nbsp;&lt;span style=&quot;color: #b5cea8;&quot;&gt;1&lt;/span&gt;;&lt;/div&gt;&lt;div&gt;        &lt;/div&gt;&lt;div&gt;&lt;span style=&quot;color: #9cdcfe;&quot;&gt;n_deref1&lt;/span&gt; = &lt;span style=&quot;color: #9cdcfe;&quot;&gt;rbus_1_rx_queue_consumer_index&lt;/span&gt;;&lt;/div&gt;&lt;div&gt;&lt;span style=&quot;color: #9cdcfe;&quot;&gt;n_cse2&lt;/span&gt; = &lt;span style=&quot;color: #9cdcfe;&quot;&gt;n_deref1&lt;/span&gt;;&lt;/div&gt;&lt;div&gt;&lt;span style=&quot;color: #9cdcfe;&quot;&gt;n_deref2&lt;/span&gt; = &lt;span style=&quot;color: #9cdcfe;&quot;&gt;rbus_1_rx_buffer&lt;/span&gt;[&lt;span style=&quot;color: #9cdcfe;&quot;&gt;n_cse2&lt;/span&gt; % &lt;span style=&quot;color: #b5cea8;&quot;&gt;64&lt;/span&gt;];&lt;/div&gt;&lt;div&gt;        &lt;/div&gt;&lt;div&gt;        &lt;span style=&quot;color: #9cdcfe;&quot;&gt;rbus_1_msg_buffer_buffer&lt;/span&gt;[&lt;span style=&quot;color: #9cdcfe;&quot;&gt;n_cse2&lt;/span&gt; % &lt;span style=&quot;color: #b5cea8;&quot;&gt;512&lt;/span&gt;] = &lt;span style=&quot;color: #9cdcfe;&quot;&gt;n_deref2&lt;/span&gt;;&lt;/div&gt;&lt;div&gt;        &lt;/div&gt;&lt;div&gt;&lt;span style=&quot;color: #9cdcfe;&quot;&gt;n_deref3&lt;/span&gt; = &lt;span style=&quot;color: #9cdcfe;&quot;&gt;rbus_1_msg_size&lt;/span&gt;;&lt;/div&gt;&lt;div&gt;        &lt;/div&gt;&lt;div&gt;        &lt;span style=&quot;color: #9cdcfe;&quot;&gt;rbus_1_msg_size&lt;/span&gt; = &lt;span style=&quot;color: #b5cea8;&quot;&gt;1&lt;/span&gt;&amp;nbsp;+ &lt;span style=&quot;color: #9cdcfe;&quot;&gt;n_deref3&lt;/span&gt;;&lt;/div&gt;&lt;div&gt;        &lt;span style=&quot;color: #9cdcfe;&quot;&gt;rbus_1_rx_queue_consumer_index&lt;/span&gt; = &lt;span style=&quot;color: #b5cea8;&quot;&gt;1U&lt;/span&gt; + &lt;span style=&quot;color: #9cdcfe;&quot;&gt;n_deref1&lt;/span&gt;;&lt;/div&gt;&lt;div&gt;        &lt;/div&gt;&lt;div&gt;&lt;span style=&quot;color: #9cdcfe;&quot;&gt;n_deref4&lt;/span&gt; = &lt;span style=&quot;color: #9cdcfe;&quot;&gt;rbus_1_rx_queue_producer_semaphore&lt;/span&gt;;&lt;/div&gt;&lt;div&gt;        &lt;/div&gt;&lt;div&gt;        &lt;span style=&quot;color: #9cdcfe;&quot;&gt;rbus_1_rx_queue_producer_semaphore&lt;/span&gt; = &lt;span style=&quot;color: #b5cea8;&quot;&gt;1&lt;/span&gt;&amp;nbsp;+ &lt;span style=&quot;color: #9cdcfe;&quot;&gt;n_deref4&lt;/span&gt;;&lt;/div&gt;&lt;/div&gt;" style="whiteSpace=wrap;html=1;fontColor=#FFFFFF;" vertex="1" parent="1">
                    <mxGeometry x="3550" y="275" width="380" height="180" as="geometry"/>
                </mxCell>
                <mxCell id="167" style="edgeStyle=none;html=1;exitX=0.5;exitY=1;exitDx=0;exitDy=0;entryX=0.5;entryY=0;entryDx=0;entryDy=0;fontColor=#FFFFFF;" edge="1" parent="1" source="161" target="165">
                    <mxGeometry relative="1" as="geometry"/>
                </mxCell>
                <mxCell id="161" value="&lt;div style=&quot;color: rgb(212, 212, 212); background-color: rgb(30, 30, 30); font-family: &amp;quot;Fira Code&amp;quot;, Menlo, Monaco, &amp;quot;Courier New&amp;quot;, monospace; line-height: 18px;&quot;&gt;&lt;div&gt;&lt;span style=&quot;color: #9cdcfe;&quot;&gt;n_deref5&lt;/span&gt; = &lt;span style=&quot;color: #9cdcfe;&quot;&gt;rbus_1_msg_size&lt;/span&gt;;&lt;/div&gt;&lt;div&gt;&lt;span style=&quot;color: #9cdcfe;&quot;&gt;n_deref6&lt;/span&gt; = &lt;span style=&quot;color: #9cdcfe;&quot;&gt;rbus_1_rx_timestamp&lt;/span&gt;;&lt;/div&gt;&lt;div&gt;&lt;span style=&quot;color: #9cdcfe;&quot;&gt;n_r7&lt;/span&gt; = &lt;span style=&quot;color: #569cd6;&quot;&gt;TIMER_CNT&lt;/span&gt;(&lt;span style=&quot;color: #569cd6;&quot;&gt;TIMER1&lt;/span&gt;);&lt;/div&gt;&lt;div&gt;    &lt;/div&gt;&lt;/div&gt;" style="whiteSpace=wrap;html=1;fontColor=#FFFFFF;" vertex="1" parent="1">
                    <mxGeometry x="3550" y="515" width="380" height="70" as="geometry"/>
                </mxCell>
                <mxCell id="168" style="edgeStyle=none;html=1;exitX=0.5;exitY=1;exitDx=0;exitDy=0;entryX=0.5;entryY=0;entryDx=0;entryDy=0;fontColor=#FFFFFF;" edge="1" parent="1" source="165" target="151">
                    <mxGeometry relative="1" as="geometry"/>
                </mxCell>
                <mxCell id="176" style="edgeStyle=none;html=1;exitX=1;exitY=0.5;exitDx=0;exitDy=0;fontColor=#FFFFFF;" edge="1" parent="1" source="165">
                    <mxGeometry relative="1" as="geometry">
                        <mxPoint x="3740" y="1100" as="targetPoint"/>
                        <Array as="points">
                            <mxPoint x="4000" y="660"/>
                            <mxPoint x="4000" y="1070"/>
                            <mxPoint x="3740" y="1070"/>
                        </Array>
                    </mxGeometry>
                </mxCell>
                <mxCell id="165" value="&lt;div style=&quot;color: rgb(212, 212, 212); background-color: rgb(30, 30, 30); font-family: &amp;quot;Fira Code&amp;quot;, Menlo, Monaco, &amp;quot;Courier New&amp;quot;, monospace; line-height: 18px;&quot;&gt;&lt;div&gt;    &lt;span style=&quot;color: #c586c0;&quot;&gt;if&lt;/span&gt; (&lt;span style=&quot;color: #9cdcfe;&quot;&gt;n_deref5&lt;/span&gt; ==&amp;nbsp;&lt;span style=&quot;color: #b5cea8;&quot;&gt;512U&lt;/span&gt;&amp;nbsp;|| &lt;span style=&quot;color: #9cdcfe;&quot;&gt;n_deref5&lt;/span&gt; &amp;gt; &lt;span style=&quot;color: #b5cea8;&quot;&gt;0)&lt;/span&gt;&amp;nbsp;&amp;amp;&amp;amp; ((&lt;span style=&quot;color: #9cdcfe;&quot;&gt;n_r7&lt;/span&gt; - &lt;span style=&quot;color: #9cdcfe;&quot;&gt;n_deref6&lt;/span&gt;) &amp;gt; &lt;span style=&quot;color: #b5cea8;&quot;&gt;40U&lt;/span&gt;)&lt;/div&gt;&lt;div&gt;&lt;/div&gt;&lt;/div&gt;" style="rhombus;whiteSpace=wrap;html=1;fontColor=#FFFFFF;" vertex="1" parent="1">
                    <mxGeometry x="3522.5" y="615" width="435" height="85" as="geometry"/>
                </mxCell>
                <mxCell id="173" style="edgeStyle=none;html=1;exitX=0.5;exitY=1;exitDx=0;exitDy=0;entryX=0.5;entryY=0;entryDx=0;entryDy=0;fontColor=#FFFFFF;" edge="1" parent="1" source="169" target="172">
                    <mxGeometry relative="1" as="geometry"/>
                </mxCell>
                <mxCell id="175" style="edgeStyle=none;html=1;exitX=1;exitY=0.5;exitDx=0;exitDy=0;fontColor=#FFFFFF;" edge="1" parent="1" source="169">
                    <mxGeometry relative="1" as="geometry">
                        <mxPoint x="3740" y="1100.0000000000002" as="targetPoint"/>
                        <Array as="points">
                            <mxPoint x="3960" y="830"/>
                            <mxPoint x="3960" y="1070"/>
                            <mxPoint x="3740" y="1070"/>
                        </Array>
                    </mxGeometry>
                </mxCell>
                <mxCell id="169" value="if( n_deref8 &amp;gt; 0)" style="rhombus;whiteSpace=wrap;html=1;fontColor=#FFFFFF;" vertex="1" parent="1">
                    <mxGeometry x="3645" y="790" width="190" height="80" as="geometry"/>
                </mxCell>
                <mxCell id="172" value="&lt;div style=&quot;background-color: rgb(30, 30, 30); font-family: &amp;quot;Fira Code&amp;quot;, Menlo, Monaco, &amp;quot;Courier New&amp;quot;, monospace; line-height: 18px;&quot;&gt;&lt;div style=&quot;color: rgb(212, 212, 212);&quot;&gt;&lt;span style=&quot;color: #9cdcfe;&quot;&gt;rbus_1_msg_queue_producer_semaphore&lt;/span&gt; = &lt;span style=&quot;color: #9cdcfe;&quot;&gt;n_deref8&lt;/span&gt; -&amp;nbsp;&lt;span style=&quot;color: #b5cea8;&quot;&gt;1&lt;/span&gt;;&lt;/div&gt;&lt;div style=&quot;color: rgb(212, 212, 212);&quot;&gt;            &lt;/div&gt;&lt;div style=&quot;color: rgb(212, 212, 212);&quot;&gt;&lt;span style=&quot;color: #9cdcfe;&quot;&gt;n_deref9&lt;/span&gt; = &lt;span style=&quot;color: #9cdcfe;&quot;&gt;rbus_1_msg_queue_producer_index&lt;/span&gt;;&lt;/div&gt;&lt;div style=&quot;color: rgb(212, 212, 212);&quot;&gt;            &lt;/div&gt;&lt;div style=&quot;color: rgb(212, 212, 212);&quot;&gt;            &lt;span style=&quot;color: #9cdcfe;&quot;&gt;rbus_1_msg_size_buffer&lt;/span&gt;[&lt;span style=&quot;color: #9cdcfe;&quot;&gt;n_deref9&lt;/span&gt; % &lt;span style=&quot;color: #b5cea8;&quot;&gt;32&lt;/span&gt;] = &lt;span style=&quot;color: #9cdcfe;&quot;&gt;n_deref5&lt;/span&gt;;&lt;/div&gt;&lt;div style=&quot;&quot;&gt;            &lt;span style=&quot;color: rgb(156, 220, 254);&quot;&gt;rbus_1_msg_size&lt;/span&gt;&lt;font color=&quot;#d4d4d4&quot;&gt; = &lt;/font&gt;&lt;font color=&quot;#b5cea8&quot;&gt;0&lt;/font&gt;&lt;font color=&quot;#d4d4d4&quot;&gt;;&lt;/font&gt;&lt;/div&gt;&lt;div style=&quot;color: rgb(212, 212, 212);&quot;&gt;            &lt;span style=&quot;color: #9cdcfe;&quot;&gt;rbus_1_msg_queue_producer_index&lt;/span&gt; =&amp;nbsp;&lt;span style=&quot;color: #b5cea8;&quot;&gt;1&lt;/span&gt;&amp;nbsp;+ &lt;span style=&quot;color: #9cdcfe;&quot;&gt;n_deref9&lt;/span&gt;;&lt;/div&gt;&lt;div style=&quot;color: rgb(212, 212, 212);&quot;&gt;            &lt;/div&gt;&lt;div style=&quot;color: rgb(212, 212, 212);&quot;&gt;&lt;span style=&quot;color: #9cdcfe;&quot;&gt;n_deref10&lt;/span&gt; = &lt;span style=&quot;color: #9cdcfe;&quot;&gt;rbus_1_msg_queue_consumer_semaphore&lt;/span&gt;;&lt;/div&gt;&lt;div style=&quot;color: rgb(212, 212, 212);&quot;&gt;            &lt;/div&gt;&lt;div style=&quot;color: rgb(212, 212, 212);&quot;&gt;            &lt;span style=&quot;color: #9cdcfe;&quot;&gt;rbus_1_msg_queue_consumer_semaphore&lt;/span&gt; =&amp;nbsp;&lt;span style=&quot;color: #b5cea8;&quot;&gt;1&lt;/span&gt;&amp;nbsp;+ &lt;span style=&quot;color: #9cdcfe;&quot;&gt;n_deref10&lt;/span&gt;;&lt;/div&gt;&lt;/div&gt;" style="whiteSpace=wrap;html=1;fontColor=#FFFFFF;" vertex="1" parent="1">
                    <mxGeometry x="3540" y="895" width="400" height="140" as="geometry"/>
                </mxCell>
                <mxCell id="174" value="" style="edgeStyle=none;orthogonalLoop=1;jettySize=auto;html=1;fontColor=#FFFFFF;exitX=0.5;exitY=1;exitDx=0;exitDy=0;" edge="1" parent="1" source="172">
                    <mxGeometry width="100" relative="1" as="geometry">
                        <mxPoint x="3680" y="1070" as="sourcePoint"/>
                        <mxPoint x="3740" y="1100" as="targetPoint"/>
                        <Array as="points"/>
                    </mxGeometry>
                </mxCell>
            </root>
        </mxGraphModel>
    </diagram>
</mxfile>